<?xml version="1.0" standalone="no"?>
<!DOCTYPE svg PUBLIC "-//W3C//DTD SVG 1.1//EN"
"http://www.w3.org/Graphics/SVG/1.1/DTD/svg11.dtd">

<svg width="392" height="120" view_box="0 0 392 120"
xmlns="http://www.w3.org/2000/svg"
xmlns:link="http://www.w3.org/1999/xlink">\n\n<desc>Généré par Mocodo 2.3.7 le Wed, 18 Nov 2020 02:42:55</desc>

<rect id="frame" x="0" y="0" width="392" height="120" fill="#f7f7f7" stroke="none" stroke-width="0"/>

<!-- Association POSSEDE/APPARTIENT -->
<line x1="37" y1="60" x2="174" y2="60" stroke="#de77ae" stroke-width="2"/>
<text x="70" y="77.0" fill="#4d9221" font-family="Verdana" font-size="12">0,N</text>
<line x1="333" y1="60" x2="174" y2="60" stroke="#de77ae" stroke-width="2"/>
<text x="257" y="77.0" fill="#4d9221" font-family="Verdana" font-size="12">1,1</text>
<g id="association-POSSEDE/APPARTIENT">
	<path d="M 237 35 a 14 14 90 0 1 14 14 V 60 h -154 V 49 a 14 14 90 0 1 14 -14" fill="#f1b6da" stroke="#f1b6da" stroke-width="0"/>
	<path d="M 251 60.0 v 11 a 14 14 90 0 1 -14 14 H 111 a 14 14 90 0 1 -14 -14 V 60.0 H 154" fill="#fde0ef" stroke="#fde0ef" stroke-width="0"/>
	<rect x="97" y="35" width="154" height="50" fill="none" rx="14" stroke="#de77ae" stroke-width="2"/>
	<line x1="97" y1="60" x2="251" y2="60" stroke="#de77ae" stroke-width="1"/>
	<text x="104" y="52.7" fill="#000000" font-family="Verdana" font-size="12">POSSEDE/APPARTIENT</text>
</g>

<!-- Entity PROMO -->
<g id="entity-PROMO">
	<g id="frame-PROMO">
		<rect x="9" y="26" width="56" height="25" fill="#b8e186" stroke="#b8e186" stroke-width="0"/>
		<rect x="9" y="51.0" width="56" height="43" fill="#e6f5d0" stroke="#e6f5d0" stroke-width="0"/>
		<rect x="9" y="26" width="56" height="68" fill="none" stroke="#7fbc41" stroke-width="2"/>
		<line x1="9" y1="51" x2="65" y2="51" stroke="#7fbc41" stroke-width="1"/>
	</g>
	<text x="14" y="43.7" fill="#000000" font-family="Verdana" font-size="12">PROMO</text>
	<text x="14" y="68.8" fill="#000000" font-family="Verdana" font-size="12">nom</text>
	<line x1="14" y1="71" x2="42" y2="71" stroke="#000000" stroke-width="1"/>
	<text x="14" y="85.8" fill="#000000" font-family="Verdana" font-size="12">github</text>
</g>

<!-- Entity ETUDIANT -->
<g id="entity-ETUDIANT">
	<g id="frame-ETUDIANT">
		<rect x="283" y="9" width="100" height="25" fill="#b8e186" stroke="#b8e186" stroke-width="0"/>
		<rect x="283" y="34.0" width="100" height="77" fill="#e6f5d0" stroke="#e6f5d0" stroke-width="0"/>
		<rect x="283" y="9" width="100" height="102" fill="none" stroke="#7fbc41" stroke-width="2"/>
		<line x1="283" y1="34" x2="383" y2="34" stroke="#7fbc41" stroke-width="1"/>
	</g>
	<text x="301" y="26.7" fill="#000000" font-family="Verdana" font-size="12">ETUDIANT</text>
	<text x="288" y="51.7" fill="#000000" font-family="Verdana" font-size="12">nom</text>
	<line x1="288" y1="54" x2="316" y2="54" stroke="#000000" stroke-width="1"/>
	<text x="288" y="68.8" fill="#000000" font-family="Verdana" font-size="12">prenom</text>
	<line x1="288" y1="71" x2="335" y2="71" stroke="#000000" stroke-width="1"/>
	<text x="288" y="85.8" fill="#000000" font-family="Verdana" font-size="12">pseudo_github</text>
	<text x="288" y="102.8" fill="#000000" font-family="Verdana" font-size="12">profil_picture</text>
</g>
</svg>